<svg xmlns="http://www.w3.org/2000/svg" id="Logo_payoff" data-name="Logo + payoff" viewBox="0 0 403.28 278.79"><defs><style>      .cls-1 {        fill: #71a850;      }      .cls-1, .cls-2 {        stroke-width: 0px;      }      .cls-2 {        fill: #004750;      }    </style></defs><path class="cls-1" d="M254.85,181.77v56.87c0,.16-.12.28-.27.28h-10.92c-.15,0-.27-.13-.27-.28v-46.17c0-4.59-2.52-9.16-3.37-10.56-.11-.19.02-.43.24-.43h6.77s.02,0,.02,0h7.54c.15,0,.27.13.27.28M32.34,181.64l26.6,56.91c.08.18-.05.38-.24.38h-11.45c-.11,0-.2-.06-.24-.16l-4.96-11.34c-.05-.1-.13-.16-.24-.16h-24.68c-.11,0-.2.06-.24.16l-4.96,11.34c-.04.1-.13.16-.24.16H.26c-.19,0-.32-.2-.23-.38l21.34-45.65c2.04-4.43.21-8.82-.72-10.59-.2-.37.07-.82.48-.82h3.77s1.8,0,1.8,0h0s5.42,0,5.42,0c.1,0,.19.06.24.15M39.93,222.03l-10.23-22.74c-.09-.21-.38-.21-.48,0l-8.22,18.12c-.08.18.05.38.24.38l7.63.02c6.72,0,8.59,2.89,10.61,4.58.24.21.59-.07.45-.36M114.55,181.48h-10.97c-.14,0-.25.12-.25.26v22.94c-.14,7.12,3.42,14.39,5.07,17.63.14.28-.29.51-.5.28l-37.96-41.02c-.05-.05-.11-.08-.19-.08h-5.47s-2.79,0-2.79,0c-.45,0-.72.51-.47.89,1.11,1.65,3.25,5.35,3.25,9.35v46.94c0,.14.11.26.25.26h10.89c.14,0,.26-.11.26-.26v-35.27c0-.23.28-.35.43-.18l33.03,35.62c.05.05.11.08.19.08h5.21c.13,0,.25-.11.25-.26v-56.92c0-.14-.12-.26-.25-.26M177.76,210.24c0,15.23-11.71,28.68-26.45,28.68h-23.81c-.13,0-.25-.11-.25-.26v-45.67c0-5.44-2.16-9.19-3.25-10.73-.23-.33.01-.79.4-.78h2.84s0,0,0,0h22.22c15.62,0,28.28,12.87,28.28,28.76M166.52,210.24c0-9.94-7.65-18.37-17.05-18.37h-17.75c-.31,0-.44.52-.13.6,3.45.96,6.74,2.86,6.74,6.33v29.46c0,.14.11.26.25.26l11.77.03c8.93,0,16.17-8.68,16.17-18.29M235.07,238.25c.21.27.02.67-.32.67h-12.58c-.13,0-.25-.06-.32-.17l-10.58-14.47c-.08-.12-.21-.18-.35-.16-.6.06-1.3.06-1.93.06h-10.03c-.23,0-.41.19-.41.42v13.91c0,.23-.18.42-.4.42h-10.58c-.22,0-.41-.19-.41-.42,0-4.07,0-36.71,0-45.27,0-5.34-1.95-9-3.09-10.69-.31-.46,0-1.07.55-1.06h2.55s0,0,0,0h24.78c16.41,0,21.99,9.94,21.99,20.69,0,9.65-3.81,16.09-10.92,19.42-.24.11-.32.42-.16.63l12.23,16.02ZM221.96,203.07c0-5.95-3.03-11.21-11.87-11.21h-11.14c-.23,0-.41.19-.41.42v15.58c-.01,3.45-3.3,5.35-6.73,6.3-.3.08-.18.61.13.6l16.64.03c9.08,0,13.38-4.96,13.38-11.73M378.84,181.48h-10.99c-.13,0-.24.11-.24.24v22.95c-.14,7.12,3.43,14.39,5.07,17.63.15.28-.29.51-.5.28l-37.96-41.03s-.11-.08-.17-.08h-5.47s-3.43,0-3.43,0c-.19,0-.31.22-.21.38.86,1.33,3.64,5.93,3.64,9.87v46.95c0,.14.11.25.24.25h10.91c.13,0,.24-.11.24-.25v-35.31c0-.22.27-.33.41-.17l33.05,35.65s.11.08.17.08h5.23c.13,0,.24-.11.24-.25v-56.94c0-.14-.11-.24-.24-.24M403.04,181.48h-14.43c-.19,0-.31.2-.21.37.8,1.32,3.41,5.97,3.41,10.62v46.2c0,.14.11.25.24.25h10.99c.13,0,.24-.11.24-.25v-56.94c0-.14-.11-.24-.24-.24M294.87,181.64l26.6,56.91c.08.18-.04.38-.23.38h-11.45c-.11,0-.19-.06-.24-.16l-4.96-11.34c-.05-.1-.13-.16-.24-.16h-24.68c-.1,0-.19.06-.23.16l-4.96,11.34c-.04.1-.13.16-.23.16h-11.45c-.19,0-.32-.2-.23-.38l21.34-45.65c2.04-4.43.21-8.82-.72-10.59-.2-.37.07-.82.48-.82h3.77s1.8,0,1.8,0h0s5.42,0,5.42,0c.1,0,.19.06.23.15M302.46,222.03l-10.22-22.74c-.1-.21-.38-.21-.48,0l-8.23,18.12c-.08.18.05.38.24.38l7.63.02c6.72,0,8.59,2.89,10.61,4.58.24.21.59-.07.45-.36"></path><g><g><path class="cls-2" d="M182.1,107.64c-2.27,1.86-4.85,3.35-7.67,4.36-3.63,1.3-7.63,1.82-11.8,1.35-11.85-1.32-21.43-10.83-22.79-22.62-1.31-11.35,4.79-21.46,14.11-26.14,2.82-1.42,5.65-2.17,11.18-2.41.99-.04,1.18-1.43.23-1.73-4.16-1.31-8.53-2-13.14-1.88-21.7.55-39.83,17.73-41.38,39.26-1.23,17.2,8.25,32.25,22.13,39.98l4.81-.22c18.62-.86,34.84-12.52,44.33-29.94"></path><path class="cls-2" d="M291.78,139.18c-10.78-3.65-42.31-17.99-53.08-63.04-7.31-30.53-13.14-47.29-24.45-58.37C187.85-8.12,153.9.64,141.63,5.06c-1.08.38-.86,1.97.28,2.05,20.83,1.36,42.62,11.87,52.29,47.41,3.96,14.56,1.95,31.35,8.85,46.79,22.64,50.59,74.22,43.11,88.6,39.91,1.05-.24,1.15-1.69.13-2.03"></path></g><path class="cls-1" d="M194.17,86.31c-5.27,28.95-25.98,52.46-54.29,53.78,4.68,2.51,15.07,3.49,21.75,3.49,20.39,0,36.82-7.76,50.3-20.59-4.96-5.55-9.44-12.34-13.16-20.67-2.36-5.27-3.7-10.65-4.6-16.01"></path></g><g><path class="cls-2" d="M54.67,272.86h-8.88l3.74-18.12h4.27l-3.13,15.25h4.61l-.61,2.87Z"></path><path class="cls-2" d="M70,265.99l-8.67,1.18c-.08,1.84.66,3.16,2.77,3.16,1.5,0,3-.45,3.79-.82l.39,2.55c-1.16.58-3,1.05-5.11,1.05-3.58,0-5.69-2.03-5.69-5.45,0-2.08.71-4.45,1.92-6.14,1.37-1.92,3.45-3.13,6.03-3.13,3.13,0,4.9,1.84,4.9,5,0,.79-.11,1.63-.34,2.58ZM64.95,260.8c-1.19,0-2.19.82-2.87,2.21-.29.61-.53,1.34-.68,2.19l5.14-.76c.13-.53.18-1,.18-1.45,0-1.42-.63-2.19-1.76-2.19Z"></path><path class="cls-2" d="M83.35,272.07c-1.29.61-3.06,1.05-5.5,1.05-3.74,0-5.85-2-5.85-5.29,0-2.24.84-4.85,2.24-6.56,1.5-1.82,3.71-2.87,6.74-2.87,2.05,0,3.95.45,4.98,1.05l-2.61,12.62ZM80.33,260.77c-1.24,0-2.27.74-3.03,2.11-.74,1.34-1.24,3.37-1.24,4.93,0,1.74.68,2.71,2.21,2.71.58,0,1.05-.11,1.37-.24l1.9-9.27c-.21-.11-.61-.24-1.21-.24Z"></path><path class="cls-2" d="M98.52,272.07c-1.29.61-3.06,1.05-5.5,1.05-3.45,0-5.85-1.82-5.85-5.32,0-2.13.82-4.71,2.11-6.4,1.42-1.9,3.48-2.92,5.87-2.92.84,0,1.61.11,2.05.24l1.34-6.53h4.11l-4.14,19.89ZM95.68,260.77c-1.42,0-2.45.76-3.19,2.08-.74,1.32-1.26,3.42-1.26,4.95,0,1.74.66,2.71,2.21,2.71.58,0,1.05-.08,1.37-.24l1.95-9.35c-.34-.1-.66-.16-1.08-.16Z"></path><path class="cls-2" d="M105.71,272.86h-4.11l2.95-14.2h4.08l-2.92,14.2ZM107.03,256.56c-1.08,0-1.82-.71-1.82-1.61,0-1.21,1.24-2.29,2.61-2.29,1.08,0,1.82.68,1.82,1.58,0,1.24-1.26,2.32-2.61,2.32Z"></path><path class="cls-2" d="M123.04,263.12l-2.03,9.74h-4.08l2.03-9.93c.05-.21.08-.39.08-.58,0-.79-.5-1.4-1.79-1.4-.66,0-1.29.13-1.79.29l-2.42,11.62h-4.11l2.79-13.41c1.53-.63,3.69-1.05,6.11-1.05,3.82,0,5.35,1.45,5.35,3.58,0,.37-.05.74-.13,1.13Z"></path><path class="cls-2" d="M136.05,272.97c-.84,4.08-3.61,5.82-7.4,5.82-2.08,0-4.06-.45-5.14-1.05l1.55-2.55c.74.39,2.05.74,3.42.74,2.08,0,3.13-1.11,3.48-2.63l.18-.76c-.53.26-1.37.45-2.45.45-2.84,0-4.77-1.87-4.77-4.98,0-2.13.9-4.77,2.16-6.45,1.5-2,3.77-3.13,6.8-3.13,2.19,0,3.95.5,4.95,1.05l-2.79,13.51ZM133.31,260.77c-1.37,0-2.4.79-3.16,2.37-.66,1.32-1.19,3.56-1.19,5.03,0,1.63.63,2.45,2.16,2.45.55,0,1.11-.13,1.48-.32l1.92-9.3c-.24-.11-.58-.24-1.21-.24Z"></path><path class="cls-2" d="M155.86,261.33h-2.19l-1.53,7.38c-.05.21-.08.42-.08.61,0,.61.34,1,1.05,1,.37,0,.66-.08.9-.18l-.5,2.55c-.37.18-1.21.39-2.11.39-2.48,0-3.5-1.37-3.5-3.13,0-.34.05-.71.13-1.08l1.53-7.53h-1.53l.53-2.66h1.58l.61-3.03,4.35-1.05-.87,4.08h2.19l-.55,2.66Z"></path><path class="cls-2" d="M170.13,263.01l-2.05,9.85h-4.11l2.05-9.93c.05-.18.08-.37.08-.55,0-.82-.45-1.47-1.74-1.47-.66,0-1.24.16-1.84.45l-2.4,11.51h-4.11l4.29-20.68h4.11l-1.45,6.95c.82-.37,2.03-.74,3.24-.74,2.74,0,4.06,1.4,4.06,3.45,0,.37-.05.76-.13,1.16Z"></path><path class="cls-2" d="M184.64,265.99l-8.67,1.18c-.08,1.84.66,3.16,2.77,3.16,1.5,0,3-.45,3.79-.82l.39,2.55c-1.16.58-3,1.05-5.11,1.05-3.58,0-5.69-2.03-5.69-5.45,0-2.08.71-4.45,1.92-6.14,1.37-1.92,3.45-3.13,6.03-3.13,3.13,0,4.9,1.84,4.9,5,0,.79-.11,1.63-.34,2.58ZM179.59,260.8c-1.19,0-2.19.82-2.87,2.21-.29.61-.53,1.34-.68,2.19l5.14-.76c.13-.53.18-1,.18-1.45,0-1.42-.63-2.19-1.76-2.19Z"></path><path class="cls-2" d="M205.47,257.61h-4.98l-.95,4.61h4.35l-.58,2.79h-4.35l-1.61,7.85h-4.29l3.74-18.12h9.27l-.61,2.87Z"></path><path class="cls-2" d="M216.51,269.97c-1.32,1.95-3.32,3.16-6.01,3.16-3.37,0-5.11-2.16-5.11-5.24,0-2.08.76-4.66,1.92-6.35,1.34-1.98,3.37-3.13,5.98-3.13,3.37,0,5.14,2.13,5.14,5.22,0,2.08-.79,4.66-1.92,6.35ZM212.95,260.96c-1.11,0-1.9.84-2.45,2.11-.61,1.34-1.13,3.77-1.13,5.22,0,1.21.37,2.05,1.53,2.05s1.87-.79,2.42-2.05c.58-1.34,1.16-3.79,1.16-5.24,0-1.21-.39-2.08-1.53-2.08Z"></path><path class="cls-2" d="M231.36,269.97c-1.32,1.95-3.32,3.16-6.01,3.16-3.37,0-5.11-2.16-5.11-5.24,0-2.08.76-4.66,1.92-6.35,1.34-1.98,3.37-3.13,5.98-3.13,3.37,0,5.14,2.13,5.14,5.22,0,2.08-.79,4.66-1.92,6.35ZM227.81,260.96c-1.11,0-1.9.84-2.45,2.11-.61,1.34-1.13,3.77-1.13,5.22,0,1.21.37,2.05,1.53,2.05s1.87-.79,2.42-2.05c.58-1.34,1.16-3.79,1.16-5.24,0-1.21-.39-2.08-1.53-2.08Z"></path><path class="cls-2" d="M246.45,272.07c-1.29.61-3.06,1.05-5.5,1.05-3.45,0-5.85-1.82-5.85-5.32,0-2.13.82-4.71,2.11-6.4,1.42-1.9,3.48-2.92,5.87-2.92.84,0,1.61.11,2.05.24l1.34-6.53h4.11l-4.14,19.89ZM243.61,260.77c-1.42,0-2.45.76-3.19,2.08-.74,1.32-1.27,3.42-1.27,4.95,0,1.74.66,2.71,2.21,2.71.58,0,1.05-.08,1.37-.24l1.95-9.35c-.34-.1-.66-.16-1.08-.16Z"></path><path class="cls-2" d="M269.5,257.61h-3.13l-3.13,15.25h-4.29l3.16-15.25h-3.11l.58-2.87h10.51l-.58,2.87Z"></path><path class="cls-2" d="M277.24,261.35c-.97-.37-2.03-.39-2.71-.11l-2.4,11.62h-4.11l2.79-13.41c1.47-.63,3.53-1.05,6.08-1.05.68,0,1.13.03,1.69.08l-1.34,2.87Z"></path><path class="cls-2" d="M289.38,272.07c-1.29.61-3.06,1.05-5.5,1.05-3.74,0-5.85-2-5.85-5.29,0-2.24.84-4.85,2.24-6.56,1.5-1.82,3.71-2.87,6.74-2.87,2.05,0,3.95.45,4.98,1.05l-2.61,12.62ZM286.35,260.77c-1.24,0-2.26.74-3.03,2.11-.74,1.34-1.24,3.37-1.24,4.93,0,1.74.68,2.71,2.21,2.71.58,0,1.05-.11,1.37-.24l1.9-9.27c-.21-.11-.61-.24-1.21-.24Z"></path><path class="cls-2" d="M306.53,263.12l-2.03,9.74h-4.08l2.03-9.93c.05-.21.08-.39.08-.58,0-.79-.5-1.4-1.79-1.4-.66,0-1.29.13-1.79.29l-2.42,11.62h-4.11l2.79-13.41c1.53-.63,3.69-1.05,6.11-1.05,3.82,0,5.35,1.45,5.35,3.58,0,.37-.05.74-.13,1.13Z"></path><path class="cls-2" d="M317.4,261.64c-.42-.32-1.21-.61-2.05-.61-1.13,0-2.03.79-2.03,1.84,0,1.95,4.03,1.74,4.03,4.95,0,2.74-2.16,5.29-6.4,5.29-1.61,0-3.16-.47-3.95-1.05l1.53-2.48c.45.34,1.32.66,2.37.66,1.32,0,2.16-.95,2.16-1.98,0-1.98-3.77-1.61-3.77-4.9,0-2.48,2.03-4.98,5.66-4.98,1.61,0,2.87.4,3.85,1.05l-1.4,2.19Z"></path><path class="cls-2" d="M323.14,272.86h-4.11l2.95-14.2h4.08l-2.92,14.2ZM324.46,256.56c-1.08,0-1.82-.71-1.82-1.61,0-1.21,1.24-2.29,2.61-2.29,1.08,0,1.82.68,1.82,1.58,0,1.24-1.27,2.32-2.61,2.32Z"></path><path class="cls-2" d="M335.89,261.33h-2.19l-1.53,7.38c-.05.21-.08.42-.08.61,0,.61.34,1,1.05,1,.37,0,.66-.08.89-.18l-.5,2.55c-.37.18-1.21.39-2.11.39-2.48,0-3.5-1.37-3.5-3.13,0-.34.05-.71.13-1.08l1.53-7.53h-1.53l.53-2.66h1.58l.61-3.03,4.35-1.05-.87,4.08h2.19l-.55,2.66Z"></path><path class="cls-2" d="M340.21,272.86h-4.11l2.95-14.2h4.08l-2.92,14.2ZM341.53,256.56c-1.08,0-1.82-.71-1.82-1.61,0-1.21,1.24-2.29,2.61-2.29,1.08,0,1.82.68,1.82,1.58,0,1.24-1.27,2.32-2.61,2.32Z"></path><path class="cls-2" d="M355.33,269.97c-1.32,1.95-3.32,3.16-6.01,3.16-3.37,0-5.11-2.16-5.11-5.24,0-2.08.76-4.66,1.92-6.35,1.34-1.98,3.37-3.13,5.98-3.13,3.37,0,5.14,2.13,5.14,5.22,0,2.08-.79,4.66-1.92,6.35ZM351.77,260.96c-1.11,0-1.9.84-2.45,2.11-.61,1.34-1.13,3.77-1.13,5.22,0,1.21.37,2.05,1.53,2.05s1.87-.79,2.42-2.05c.58-1.34,1.16-3.79,1.16-5.24,0-1.21-.39-2.08-1.53-2.08Z"></path><path class="cls-2" d="M372.39,263.12l-2.03,9.74h-4.08l2.03-9.93c.05-.21.08-.39.08-.58,0-.79-.5-1.4-1.79-1.4-.66,0-1.29.13-1.79.29l-2.42,11.62h-4.11l2.79-13.41c1.53-.63,3.69-1.05,6.11-1.05,3.82,0,5.35,1.45,5.35,3.58,0,.37-.05.74-.13,1.13Z"></path></g></svg>